<svg viewBox="0 0 920 1010" xmlns="http://www.w3.org/2000/svg" font-family="Arial, sans-serif">

  <!-- Background -->
  <rect width="920" height="1010" fill="#f0f0f0" rx="8"/>

  <!-- Title -->
  <text x="460" y="30" text-anchor="middle" font-size="14" font-weight="bold" fill="#222">MIET Africa iOS · Facilitator Flow · Iteration 1</text>
  <text x="460" y="46" text-anchor="middle" font-size="10" fill="#888">Low-fidelity wireframes · iOS 26 · SwiftUI</text>

  <!-- ===================== SCREEN 1: LOGIN ===================== -->
  <rect x="28" y="62" width="175" height="370" rx="22" fill="white" stroke="#bbb" stroke-width="2"/>
  <!-- notch -->
  <rect x="86" y="66" width="58" height="16" rx="8" fill="#555"/>
  <!-- status bar line -->
  <line x1="28" y1="84" x2="203" y2="84" stroke="#eee" stroke-width="1"/>

  <!-- Logo block -->
  <rect x="68" y="96" width="80" height="14" rx="3" fill="#ddd"/>
  <rect x="84" y="114" width="48" height="8" rx="2" fill="#e8e8e8"/>

  <!-- Email -->
  <text x="46" y="138" font-size="9" fill="#999">Email</text>
  <rect x="46" y="142" width="130" height="22" rx="4" fill="#f5f5f5" stroke="#ccc" stroke-width="1"/>

  <!-- Password -->
  <text x="46" y="177" font-size="9" fill="#999">Password</text>
  <rect x="46" y="181" width="130" height="22" rx="4" fill="#f5f5f5" stroke="#ccc" stroke-width="1"/>
  <!-- eye icon hint -->
  <circle cx="166" cy="192" r="4" fill="none" stroke="#bbb" stroke-width="1"/>
  <circle cx="166" cy="192" r="2" fill="#bbb"/>

  <!-- Forgot password -->
  <text x="176" y="216" text-anchor="end" font-size="8" fill="#bbb">Forgot password?</text>

  <!-- Sign In button -->
  <rect x="46" y="222" width="130" height="26" rx="6" fill="#444"/>
  <text x="111" y="239" text-anchor="middle" font-size="10" fill="white" font-weight="bold">Sign in</text>

  <!-- Divider OR -->
  <line x1="46" y1="261" x2="98" y2="261" stroke="#ddd" stroke-width="1"/>
  <text x="111" y="265" text-anchor="middle" font-size="9" fill="#bbb">or</text>
  <line x1="124" y1="261" x2="176" y2="261" stroke="#ddd" stroke-width="1"/>

  <!-- Biometric button -->
  <rect x="46" y="271" width="130" height="36" rx="6" fill="white" stroke="#bbb" stroke-width="1"/>
  <!-- Fingerprint icon (simplified concentric arcs) -->
  <circle cx="74" cy="289" r="10" fill="none" stroke="#aaa" stroke-width="1.5"/>
  <circle cx="74" cy="289" r="6" fill="none" stroke="#aaa" stroke-width="1.5"/>
  <circle cx="74" cy="289" r="2.5" fill="#aaa"/>
  <!-- vertical line through center of fingerprint -->
  <line x1="74" y1="279" x2="74" y2="282" stroke="#aaa" stroke-width="1.5"/>
  <text x="122" y="286" text-anchor="middle" font-size="8" fill="#666">Face ID</text>
  <text x="122" y="298" text-anchor="middle" font-size="8" fill="#666">Touch ID</text>

  <!-- SSO button -->
  <rect x="46" y="314" width="130" height="24" rx="6" fill="white" stroke="#bbb" stroke-width="1"/>
  <text x="111" y="330" text-anchor="middle" font-size="9" fill="#777">Sign in with SSO</text>

  <!-- Version -->
  <text x="111" y="416" text-anchor="middle" font-size="8" fill="#ccc">v1.0 · MIET Africa</text>

  <!-- Screen label -->
  <text x="111" y="450" text-anchor="middle" font-size="11" font-weight="bold" fill="#444">1 · Login</text>
  <text x="111" y="464" text-anchor="middle" font-size="9" fill="#999">JWT · Face ID / Touch ID · SSO · iOS 26</text>

  <!-- Arrow 1→2 -->
  <text x="218" y="255" font-size="22" fill="#bbb">›</text>

  <!-- ===================== SCREEN 2: COURSE LIST ===================== -->
  <rect x="240" y="62" width="175" height="370" rx="22" fill="white" stroke="#bbb" stroke-width="2"/>
  <rect x="298" y="66" width="58" height="16" rx="8" fill="#555"/>
  <line x1="240" y1="84" x2="415" y2="84" stroke="#eee" stroke-width="1"/>

  <!-- Header row -->
  <rect x="258" y="94" width="82" height="10" rx="2" fill="#e0e0e0"/>
  <rect x="258" y="108" width="58" height="7" rx="2" fill="#ebebeb"/>
  <circle cx="398" cy="103" r="13" fill="#e0e0e0" stroke="#ccc" stroke-width="0.5"/>

  <!-- Search bar -->
  <rect x="258" y="125" width="130" height="20" rx="10" fill="#f5f5f5" stroke="#ddd" stroke-width="0.5"/>
  <text x="275" y="139" font-size="9" fill="#bbb">Search courses...</text>

  <!-- Section label -->
  <text x="258" y="160" font-size="9" fill="#aaa">My courses (3)</text>

  <!-- Course card 1 -->
  <rect x="258" y="166" width="130" height="52" rx="6" fill="white" stroke="#ddd" stroke-width="1"/>
  <rect x="266" y="174" width="95" height="9" rx="2" fill="#ddd"/>
  <rect x="266" y="187" width="38" height="11" rx="3" fill="#ececec" stroke="#ddd" stroke-width="0.5"/>
  <text x="285" y="196" text-anchor="middle" font-size="7" fill="#888">Wed 09:00</text>
  <rect x="308" y="187" width="32" height="11" rx="3" fill="#ececec" stroke="#ddd" stroke-width="0.5"/>
  <text x="324" y="196" text-anchor="middle" font-size="7" fill="#888">Durban</text>
  <rect x="266" y="203" width="60" height="7" rx="2" fill="#ebebeb"/>

  <!-- Course card 2 -->
  <rect x="258" y="224" width="130" height="52" rx="6" fill="white" stroke="#ddd" stroke-width="1"/>
  <rect x="266" y="232" width="80" height="9" rx="2" fill="#ddd"/>
  <rect x="266" y="245" width="32" height="11" rx="3" fill="#ececec" stroke="#ddd" stroke-width="0.5"/>
  <text x="282" y="254" text-anchor="middle" font-size="7" fill="#888">Fri 13:00</text>
  <rect x="302" y="245" width="35" height="11" rx="3" fill="#ececec" stroke="#ddd" stroke-width="0.5"/>
  <text x="319" y="254" text-anchor="middle" font-size="7" fill="#888">Limpopo</text>
  <rect x="266" y="261" width="52" height="7" rx="2" fill="#ebebeb"/>

  <!-- Course card 3 (lighter/upcoming) -->
  <rect x="258" y="282" width="130" height="46" rx="6" fill="#fafafa" stroke="#eee" stroke-width="1"/>
  <rect x="266" y="290" width="85" height="8" rx="2" fill="#e8e8e8"/>
  <rect x="266" y="302" width="36" height="11" rx="3" fill="#f0f0f0" stroke="#eee" stroke-width="0.5"/>
  <text x="284" y="311" text-anchor="middle" font-size="7" fill="#bbb">Mon 08:00</text>
  <rect x="266" y="318" width="48" height="6" rx="2" fill="#f0f0f0"/>

  <!-- Bottom nav -->
  <line x1="240" y1="400" x2="415" y2="400" stroke="#eee" stroke-width="1"/>
  <text x="283" y="416" text-anchor="middle" font-size="8" font-weight="bold" fill="#444">Courses</text>
  <text x="328" y="416" text-anchor="middle" font-size="8" fill="#bbb">Learners</text>
  <text x="373" y="416" text-anchor="middle" font-size="8" fill="#bbb">Alerts</text>
  <!-- active indicator -->
  <rect x="267" y="398" width="32" height="2" rx="1" fill="#444"/>

  <!-- Screen label -->
  <text x="328" y="450" text-anchor="middle" font-size="11" font-weight="bold" fill="#444">2 · Course list</text>
  <text x="328" y="464" text-anchor="middle" font-size="9" fill="#999">Tap card to open session</text>

  <!-- Arrow 2→3 -->
  <text x="430" y="255" font-size="22" fill="#bbb">›</text>

  <!-- ===================== SCREEN 3: ATTENDANCE ===================== -->
  <rect x="452" y="62" width="175" height="370" rx="22" fill="white" stroke="#bbb" stroke-width="2"/>
  <rect x="510" y="66" width="58" height="16" rx="8" fill="#555"/>
  <line x1="452" y1="84" x2="627" y2="84" stroke="#eee" stroke-width="1"/>

  <!-- Back + title -->
  <text x="466" y="101" font-size="11" fill="#888">‹</text>
  <rect x="480" y="92" width="75" height="10" rx="2" fill="#ddd"/>

  <!-- Session chips -->
  <rect x="466" y="108" width="60" height="13" rx="4" fill="#ececec" stroke="#ddd" stroke-width="0.5"/>
  <text x="496" y="118" text-anchor="middle" font-size="7" fill="#666">Today · 09:00</text>
  <rect x="530" y="108" width="52" height="13" rx="4" fill="#ececec" stroke="#ddd" stroke-width="0.5"/>
  <text x="556" y="118" text-anchor="middle" font-size="7" fill="#666">18 learners</text>

  <!-- Column headers -->
  <text x="466" y="135" font-size="8" fill="#aaa">Learner</text>
  <text x="616" y="135" text-anchor="end" font-size="8" fill="#aaa">Present</text>
  <line x1="466" y1="139" x2="616" y2="139" stroke="#eee" stroke-width="1"/>

  <!-- Learner rows -->
  <!-- Row 1 - checked -->
  <circle cx="478" cy="152" r="8" fill="#e8e8e8" stroke="#ccc" stroke-width="0.5"/>
  <rect x="492" y="147" width="70" height="8" rx="2" fill="#e0e0e0"/>
  <rect x="604" y="146" width="12" height="12" rx="2" fill="#555"/>
  <text x="610" y="156" text-anchor="middle" font-size="8" fill="white" font-weight="bold">✓</text>
  <line x1="466" y1="164" x2="616" y2="164" stroke="#f0f0f0" stroke-width="0.5"/>

  <!-- Row 2 - checked -->
  <circle cx="478" cy="177" r="8" fill="#e8e8e8" stroke="#ccc" stroke-width="0.5"/>
  <rect x="492" y="172" width="60" height="8" rx="2" fill="#e0e0e0"/>
  <rect x="604" y="171" width="12" height="12" rx="2" fill="#555"/>
  <text x="610" y="181" text-anchor="middle" font-size="8" fill="white" font-weight="bold">✓</text>
  <line x1="466" y1="189" x2="616" y2="189" stroke="#f0f0f0" stroke-width="0.5"/>

  <!-- Row 3 - unchecked -->
  <circle cx="478" cy="202" r="8" fill="#e8e8e8" stroke="#ccc" stroke-width="0.5"/>
  <rect x="492" y="197" width="75" height="8" rx="2" fill="#e0e0e0"/>
  <rect x="604" y="196" width="12" height="12" rx="2" fill="none" stroke="#bbb" stroke-width="1"/>
  <line x1="466" y1="214" x2="616" y2="214" stroke="#f0f0f0" stroke-width="0.5"/>

  <!-- Row 4 - unchecked -->
  <circle cx="478" cy="227" r="8" fill="#e8e8e8" stroke="#ccc" stroke-width="0.5"/>
  <rect x="492" y="222" width="65" height="8" rx="2" fill="#e0e0e0"/>
  <rect x="604" y="221" width="12" height="12" rx="2" fill="none" stroke="#bbb" stroke-width="1"/>
  <line x1="466" y1="239" x2="616" y2="239" stroke="#f0f0f0" stroke-width="0.5"/>

  <!-- Row 5 - checked -->
  <circle cx="478" cy="252" r="8" fill="#e8e8e8" stroke="#ccc" stroke-width="0.5"/>
  <rect x="492" y="247" width="55" height="8" rx="2" fill="#e0e0e0"/>
  <rect x="604" y="246" width="12" height="12" rx="2" fill="#555"/>
  <text x="610" y="256" text-anchor="middle" font-size="8" fill="white" font-weight="bold">✓</text>
  <line x1="466" y1="264" x2="616" y2="264" stroke="#f0f0f0" stroke-width="0.5"/>

  <!-- more rows hint -->
  <text x="541" y="280" text-anchor="middle" font-size="8" fill="#ccc">· · · 13 more learners · · ·</text>

  <!-- Offline badge -->
  <rect x="466" y="292" width="130" height="18" rx="4" fill="#fff8e1" stroke="#f0d060" stroke-width="0.5"/>
  <text x="531" y="305" text-anchor="middle" font-size="8" fill="#a08020">Offline mode · will sync on reconnect</text>

  <!-- Progress summary -->
  <text x="466" y="328" font-size="8" fill="#aaa">Marked: 3 / 18</text>

  <!-- Save button -->
  <rect x="466" y="336" width="130" height="26" rx="6" fill="#444"/>
  <text x="531" y="353" text-anchor="middle" font-size="10" fill="white" font-weight="bold">Save &amp; sync</text>

  <!-- Screen label -->
  <text x="540" y="450" text-anchor="middle" font-size="11" font-weight="bold" fill="#444">3 · Mark attendance</text>
  <text x="540" y="464" text-anchor="middle" font-size="9" fill="#999">Offline-first · Core Data sync</text>

  <!-- Arrow 3→4 -->
  <text x="642" y="255" font-size="22" fill="#bbb">›</text>

  <!-- ===================== SCREEN 4: LEARNER PROFILE ===================== -->
  <rect x="664" y="62" width="175" height="370" rx="22" fill="white" stroke="#bbb" stroke-width="2"/>
  <rect x="722" y="66" width="58" height="16" rx="8" fill="#555"/>
  <line x1="664" y1="84" x2="839" y2="84" stroke="#eee" stroke-width="1"/>

  <!-- Back + title -->
  <text x="678" y="101" font-size="11" fill="#888">‹</text>
  <rect x="692" y="92" width="65" height="10" rx="2" fill="#ddd"/>

  <!-- Avatar + name -->
  <circle cx="696" cy="126" r="18" fill="#e0e0e0" stroke="#ccc" stroke-width="1"/>
  <rect x="720" y="116" width="75" height="10" rx="2" fill="#ddd"/>
  <rect x="720" y="130" width="55" height="8" rx="2" fill="#ebebeb"/>

  <line x1="680" y1="152" x2="828" y2="152" stroke="#eee" stroke-width="1"/>

  <!-- Enrolment -->
  <text x="680" y="167" font-size="9" fill="#aaa">Enrolment</text>
  <rect x="680" y="171" width="110" height="8" rx="2" fill="#e8e8e8"/>

  <!-- Attendance bar -->
  <text x="680" y="192" font-size="9" fill="#aaa">Attendance</text>
  <rect x="680" y="196" width="140" height="9" rx="4" fill="#f0f0f0"/>
  <rect x="680" y="196" width="109" height="9" rx="4" fill="#888"/>
  <text x="828" y="204" text-anchor="end" font-size="8" fill="#666">78%</text>

  <!-- Attendance alert note -->
  <rect x="680" y="210" width="140" height="14" rx="3" fill="#fff3cd" stroke="#f0c040" stroke-width="0.5"/>
  <text x="750" y="221" text-anchor="middle" font-size="7" fill="#856404">Below 80% threshold — flagged</text>

  <!-- Assessments -->
  <text x="680" y="238" font-size="9" fill="#aaa">Assessments</text>
  <rect x="680" y="242" width="90" height="7" rx="2" fill="#e8e8e8"/>
  <rect x="680" y="253" width="75" height="7" rx="2" fill="#ebebeb"/>
  <rect x="680" y="264" width="85" height="7" rx="2" fill="#ebebeb"/>

  <!-- Certificate status -->
  <text x="680" y="284" font-size="9" fill="#aaa">Certificate status</text>
  <rect x="680" y="288" width="52" height="14" rx="4" fill="#fff3cd" stroke="#f0c040" stroke-width="0.5"/>
  <text x="706" y="299" text-anchor="middle" font-size="8" fill="#856404">Pending</text>

  <!-- Contact / notify -->
  <rect x="680" y="310" width="66" height="22" rx="5" fill="white" stroke="#ccc" stroke-width="1"/>
  <text x="713" y="325" text-anchor="middle" font-size="8" fill="#555">View history</text>
  <rect x="752" y="310" width="68" height="22" rx="5" fill="#444"/>
  <text x="786" y="325" text-anchor="middle" font-size="8" fill="white">Notify learner</text>

  <!-- Screen label -->
  <text x="752" y="450" text-anchor="middle" font-size="11" font-weight="bold" fill="#444">4 · Learner profile</text>
  <text x="752" y="464" text-anchor="middle" font-size="9" fill="#999">Tap from attendance row</text>

  <!-- ===== ROW 2 LABEL ===== -->
  <text x="460" y="510" text-anchor="middle" font-size="10" fill="#aaa" font-weight="bold">— Tab screens (accessible from Course list nav bar) —</text>

  <!-- ===================== SCREEN 5: LEARNERS TAB ===================== -->
  <rect x="134" y="520" width="175" height="370" rx="22" fill="white" stroke="#bbb" stroke-width="2"/>
  <rect x="192" y="526" width="58" height="16" rx="8" fill="#555"/>
  <line x1="134" y1="542" x2="309" y2="542" stroke="#eee" stroke-width="1"/>

  <!-- Header -->
  <text x="152" y="562" font-size="13" font-weight="bold" fill="#222">Learners</text>

  <!-- Search bar -->
  <rect x="152" y="570" width="130" height="20" rx="10" fill="#f5f5f5" stroke="#ddd" stroke-width="0.5"/>
  <text x="169" y="584" font-size="9" fill="#bbb">Search by name or ID...</text>

  <!-- Filter chips -->
  <rect x="152" y="596" width="38" height="14" rx="7" fill="#333" stroke="#333" stroke-width="0.5"/>
  <text x="171" y="606" text-anchor="middle" font-size="7" fill="white">All</text>
  <rect x="194" y="596" width="44" height="14" rx="7" fill="#f5f5f5" stroke="#ddd" stroke-width="0.5"/>
  <text x="216" y="606" text-anchor="middle" font-size="7" fill="#888">Active</text>
  <rect x="242" y="596" width="44" height="14" rx="7" fill="#f5f5f5" stroke="#ddd" stroke-width="0.5"/>
  <text x="264" y="606" text-anchor="middle" font-size="7" fill="#888">At risk</text>

  <!-- Section count -->
  <text x="152" y="624" font-size="9" fill="#aaa">18 learners</text>

  <!-- Learner rows -->
  <!-- Row 1 -->
  <circle cx="166" cy="638" r="9" fill="#e8e8e8" stroke="#ccc" stroke-width="0.5"/>
  <rect x="182" y="631" width="80" height="8" rx="2" fill="#ddd"/>
  <rect x="182" y="643" width="55" height="7" rx="2" fill="#ebebeb"/>
  <rect x="272" y="632" width="24" height="12" rx="3" fill="#e8f5e9" stroke="#c8e6c9" stroke-width="0.5"/>
  <text x="284" y="641" text-anchor="middle" font-size="6" fill="#388e3c">88%</text>
  <line x1="152" y1="656" x2="302" y2="656" stroke="#f0f0f0" stroke-width="0.5"/>

  <!-- Row 2 -->
  <circle cx="166" cy="668" r="9" fill="#e8e8e8" stroke="#ccc" stroke-width="0.5"/>
  <rect x="182" y="661" width="72" height="8" rx="2" fill="#ddd"/>
  <rect x="182" y="673" width="48" height="7" rx="2" fill="#ebebeb"/>
  <rect x="272" y="662" width="24" height="12" rx="3" fill="#fff8e1" stroke="#f0d060" stroke-width="0.5"/>
  <text x="284" y="671" text-anchor="middle" font-size="6" fill="#a08020">74%</text>
  <line x1="152" y1="686" x2="302" y2="686" stroke="#f0f0f0" stroke-width="0.5"/>

  <!-- Row 3 -->
  <circle cx="166" cy="698" r="9" fill="#e8e8e8" stroke="#ccc" stroke-width="0.5"/>
  <rect x="182" y="691" width="85" height="8" rx="2" fill="#ddd"/>
  <rect x="182" y="703" width="60" height="7" rx="2" fill="#ebebeb"/>
  <rect x="272" y="692" width="24" height="12" rx="3" fill="#e8f5e9" stroke="#c8e6c9" stroke-width="0.5"/>
  <text x="284" y="701" text-anchor="middle" font-size="6" fill="#388e3c">92%</text>
  <line x1="152" y1="716" x2="302" y2="716" stroke="#f0f0f0" stroke-width="0.5"/>

  <!-- Row 4 -->
  <circle cx="166" cy="728" r="9" fill="#e8e8e8" stroke="#ccc" stroke-width="0.5"/>
  <rect x="182" y="721" width="68" height="8" rx="2" fill="#ddd"/>
  <rect x="182" y="733" width="44" height="7" rx="2" fill="#ebebeb"/>
  <rect x="272" y="722" width="24" height="12" rx="3" fill="#fff8e1" stroke="#f0d060" stroke-width="0.5"/>
  <text x="284" y="731" text-anchor="middle" font-size="6" fill="#a08020">71%</text>
  <line x1="152" y1="746" x2="302" y2="746" stroke="#f0f0f0" stroke-width="0.5"/>

  <!-- Row 5 -->
  <circle cx="166" cy="758" r="9" fill="#e8e8e8" stroke="#ccc" stroke-width="0.5"/>
  <rect x="182" y="751" width="76" height="8" rx="2" fill="#ddd"/>
  <rect x="182" y="763" width="52" height="7" rx="2" fill="#ebebeb"/>
  <rect x="272" y="752" width="24" height="12" rx="3" fill="#e8f5e9" stroke="#c8e6c9" stroke-width="0.5"/>
  <text x="284" y="761" text-anchor="middle" font-size="6" fill="#388e3c">85%</text>
  <line x1="152" y1="776" x2="302" y2="776" stroke="#f0f0f0" stroke-width="0.5"/>

  <text x="221" y="792" text-anchor="middle" font-size="8" fill="#ccc">· · · 13 more · · ·</text>

  <!-- Bottom nav -->
  <line x1="134" y1="858" x2="309" y2="858" stroke="#eee" stroke-width="1"/>
  <text x="177" y="874" text-anchor="middle" font-size="8" fill="#bbb">Courses</text>
  <text x="222" y="874" text-anchor="middle" font-size="8" font-weight="bold" fill="#444">Learners</text>
  <text x="267" y="874" text-anchor="middle" font-size="8" fill="#bbb">Alerts</text>
  <rect x="206" y="856" width="32" height="2" rx="1" fill="#444"/>

  <!-- Screen label -->
  <text x="221" y="908" text-anchor="middle" font-size="11" font-weight="bold" fill="#444">5 · Learners</text>
  <text x="221" y="922" text-anchor="middle" font-size="9" fill="#999">Searchable · attendance badge</text>

  <!-- Arrow 5→6 -->
  <text x="322" y="716" font-size="22" fill="#bbb">›</text>

  <!-- ===================== SCREEN 6: ALERTS TAB ===================== -->
  <rect x="344" y="520" width="175" height="370" rx="22" fill="white" stroke="#bbb" stroke-width="2"/>
  <rect x="402" y="526" width="58" height="16" rx="8" fill="#555"/>
  <line x1="344" y1="542" x2="519" y2="542" stroke="#eee" stroke-width="1"/>

  <!-- Header -->
  <text x="362" y="562" font-size="13" font-weight="bold" fill="#222">Alerts</text>
  <!-- Badge count -->
  <rect x="400" y="551" width="18" height="14" rx="7" fill="#c62828"/>
  <text x="409" y="561" text-anchor="middle" font-size="7" fill="white" font-weight="bold">4</text>

  <!-- Filter chips -->
  <rect x="362" y="570" width="44" height="14" rx="7" fill="#333"/>
  <text x="384" y="580" text-anchor="middle" font-size="7" fill="white">All (4)</text>
  <rect x="410" y="570" width="52" height="14" rx="7" fill="#f5f5f5" stroke="#ddd" stroke-width="0.5"/>
  <text x="436" y="580" text-anchor="middle" font-size="7" fill="#888">Below 80%</text>
  <rect x="466" y="570" width="40" height="14" rx="7" fill="#f5f5f5" stroke="#ddd" stroke-width="0.5"/>
  <text x="486" y="580" text-anchor="middle" font-size="7" fill="#888">Absent</text>

  <!-- Alert card 1 - attendance warning -->
  <rect x="362" y="592" width="130" height="54" rx="6" fill="#fffbea" stroke="#f0d060" stroke-width="1"/>
  <circle cx="376" cy="609" r="8" fill="#e8e8e8" stroke="#ddd" stroke-width="0.5"/>
  <rect x="390" y="602" width="70" height="8" rx="2" fill="#ddd"/>
  <rect x="390" y="614" width="88" height="7" rx="2" fill="#f0d060" fill-opacity="0.4"/>
  <text x="434" y="621" text-anchor="middle" font-size="6" fill="#a08020">Attendance dropped to 74%</text>
  <text x="484" y="603" text-anchor="end" font-size="7" fill="#bbb">2h ago</text>
  <rect x="362" y="632" width="60" height="10" rx="3" fill="#fff8e1" stroke="#f0d060" stroke-width="0.5"/>
  <text x="392" y="640" text-anchor="middle" font-size="6" fill="#a08020">View profile →</text>

  <!-- Alert card 2 - absent 3 sessions -->
  <rect x="362" y="652" width="130" height="54" rx="6" fill="#ffebee" stroke="#ef9a9a" stroke-width="1"/>
  <circle cx="376" cy="669" r="8" fill="#e8e8e8" stroke="#ddd" stroke-width="0.5"/>
  <rect x="390" y="662" width="65" height="8" rx="2" fill="#ddd"/>
  <rect x="390" y="674" width="92" height="7" rx="2" fill="#ef9a9a" fill-opacity="0.4"/>
  <text x="436" y="681" text-anchor="middle" font-size="6" fill="#c62828">Absent 3 consecutive sessions</text>
  <text x="484" y="663" text-anchor="end" font-size="7" fill="#bbb">1d ago</text>
  <rect x="362" y="692" width="60" height="10" rx="3" fill="#ffebee" stroke="#ef9a9a" stroke-width="0.5"/>
  <text x="392" y="700" text-anchor="middle" font-size="6" fill="#c62828">View profile →</text>

  <!-- Alert card 3 -->
  <rect x="362" y="712" width="130" height="54" rx="6" fill="#fffbea" stroke="#f0d060" stroke-width="1"/>
  <circle cx="376" cy="729" r="8" fill="#e8e8e8" stroke="#ddd" stroke-width="0.5"/>
  <rect x="390" y="722" width="78" height="8" rx="2" fill="#ddd"/>
  <rect x="390" y="734" width="88" height="7" rx="2" fill="#f0d060" fill-opacity="0.4"/>
  <text x="434" y="741" text-anchor="middle" font-size="6" fill="#a08020">Attendance dropped to 71%</text>
  <text x="484" y="723" text-anchor="end" font-size="7" fill="#bbb">1d ago</text>
  <rect x="362" y="752" width="60" height="10" rx="3" fill="#fff8e1" stroke="#f0d060" stroke-width="0.5"/>
  <text x="392" y="760" text-anchor="middle" font-size="6" fill="#a08020">View profile →</text>

  <!-- Alert card 4 -->
  <rect x="362" y="772" width="130" height="44" rx="6" fill="#fffbea" stroke="#f0d060" stroke-width="1"/>
  <circle cx="376" cy="787" r="8" fill="#e8e8e8" stroke="#ddd" stroke-width="0.5"/>
  <rect x="390" y="780" width="72" height="8" rx="2" fill="#ddd"/>
  <rect x="390" y="792" width="88" height="7" rx="2" fill="#f0d060" fill-opacity="0.4"/>
  <text x="434" y="799" text-anchor="middle" font-size="6" fill="#a08020">Attendance dropped to 78%</text>
  <text x="484" y="781" text-anchor="end" font-size="7" fill="#bbb">2d ago</text>

  <!-- Bottom nav -->
  <line x1="344" y1="858" x2="519" y2="858" stroke="#eee" stroke-width="1"/>
  <text x="387" y="874" text-anchor="middle" font-size="8" fill="#bbb">Courses</text>
  <text x="432" y="874" text-anchor="middle" font-size="8" fill="#bbb">Learners</text>
  <text x="477" y="874" text-anchor="middle" font-size="8" font-weight="bold" fill="#444">Alerts</text>
  <rect x="461" y="856" width="32" height="2" rx="1" fill="#444"/>

  <!-- Screen label -->
  <text x="431" y="908" text-anchor="middle" font-size="11" font-weight="bold" fill="#444">6 · Alerts</text>
  <text x="431" y="922" text-anchor="middle" font-size="9" fill="#999">Auto-flagged · &lt;80% threshold</text>

  <!-- ===== BOTTOM ANNOTATION BAR ===== -->
  <rect x="28" y="942" width="864" height="56" rx="6" fill="white" stroke="#ddd" stroke-width="0.5"/>
  <text x="44" y="960" font-size="9" font-weight="bold" fill="#555">Notes:</text>
  <text x="44" y="974" font-size="8" fill="#888">Screens 1–4: core facilitator flow · Screens 5–6: tab screens, reuse learner row component from Screen 3</text>
  <text x="44" y="986" font-size="8" fill="#888">Biometric via LocalAuthentication · Offline via Core Data · JWT 24hr · POPIA compliant · Alerts auto-generated when attendance &lt;80%</text>
  <text x="44" y="998" font-size="8" fill="#888">iOS 26 · SwiftUI · Dynamic Island · RBAC: Facilitator role · Green badge ≥80% · Amber badge &lt;80% · Red badge = consecutive absences</text>

</svg>
